<svg height="auto" viewBox="0 0 2000 1400" xmlns="http://www.w3.org/2000/svg"><path d="M0 1400h80v-.532q0-4-4-4H4q-4 0-4 4ZM100 1400h80v-69.727q0-4-4-4h-72q-4 0-4 4ZM200 1400h80v-132.343q0-4-4-4h-72q-4 0-4 4ZM300 1400h80v-172.176q0-4-4-4h-72q-4 0-4 4ZM400 1400h80v-211.639q0-4-4-4h-72q-4 0-4 4ZM500 1400h80v-265.749q0-4-4-4h-72q-4 0-4 4ZM600 1400h80v-277.548q0-4-4-4h-72q-4 0-4 4ZM700 1400h80V964.154q0-4-4-4h-72q-4 0-4 4ZM800 1400h80V812.224q0-4-4-4h-72q-4 0-4 4ZM900 1400h80V813.391q0-4-4-4h-72q-4 0-4 4ZM1000 1400h80V789.94q0-4-4-4h-72q-4 0-4 4ZM1100 1400h80V597.267q0-4-4-4h-72q-4 0-4 4ZM1200 1400h80V572.21q0-4-4-4h-72q-4 0-4 4ZM1300 1400h80V774.116q0-4-4-4h-72q-4 0-4 4ZM1400 1400h80V590.405q0-4-4-4h-72q-4 0-4 4ZM1500 1400h80V576.853q0-4-4-4h-72q-4 0-4 4ZM1600 1400h80V416.552q0-4-4-4h-72q-4 0-4 4ZM1700 1400h80V188.769q0-4-4-4h-72q-4 0-4 4ZM1800 1400h80V587.627q0-4-4-4h-72q-4 0-4 4ZM1900 1400h80V235.485q0-4-4-4h-72q-4 0-4 4Z" fill="#198754"/></svg>